<svg width="26" height="26" viewBox="0 0 26 26" fill="none" xmlns="http://www.w3.org/2000/svg">
<path d="M21.6408 3.58265C19.3304 1.27222 16.2592 0 12.9916 0C12.9914 0 12.9907 0 12.9905 0C11.3743 0.00019244 9.79942 0.3131 8.30975 0.930254C6.81988 1.54741 5.48511 2.43975 4.34221 3.58265C2.03197 5.89289 0.759755 8.96462 0.759755 12.2319C0.759755 14.1803 1.22989 16.1166 2.12069 17.8419L0.0646627 23.7155C-0.0802445 24.1298 0.0223259 24.5801 0.332924 24.8906C0.550188 25.108 0.836154 25.2235 1.1302 25.2235C1.25625 25.2235 1.38365 25.2023 1.50796 25.1588L7.38161 23.103C9.10683 23.9938 11.0432 24.4639 12.9916 24.4639C16.2589 24.4639 19.3304 23.1915 21.6408 20.8813C23.9511 18.571 25.2235 15.4993 25.2235 12.2321C25.2235 8.96462 23.9513 5.89289 21.6408 3.58265V3.58265ZM20.5947 19.8352C18.5639 21.8662 15.8636 22.9844 12.9916 22.9844C11.2346 22.9844 9.48921 22.5499 7.94392 21.7274C7.66373 21.5785 7.33254 21.5529 7.03522 21.657L1.69886 23.5246L3.56668 18.1883C3.67079 17.8906 3.64501 17.5594 3.49606 17.2794C2.67376 15.7345 2.23904 13.989 2.23904 12.2319C2.23904 9.35989 3.3575 6.65957 5.38832 4.62876C7.41894 2.59813 10.1189 1.47967 12.9907 1.47928H12.9916C15.8638 1.47928 18.5639 2.59775 20.5947 4.62876C22.6257 6.65957 23.7442 9.3597 23.7442 12.2319C23.7442 15.104 22.6257 17.8043 20.5947 19.8352V19.8352Z" fill="white"/>
<path d="M17.5375 13.3245C16.9748 12.7619 16.0591 12.7619 15.4964 13.3245L14.881 13.94C13.3529 13.1073 12.1162 11.8707 11.2834 10.3425L11.8988 9.72708C12.4617 9.16438 12.4617 8.24875 11.8988 7.68606L10.2403 6.02761C9.67764 5.46492 8.76201 5.46492 8.19932 6.02761L6.87264 7.35429C6.11269 8.11424 6.07478 9.42071 6.76583 11.0332C7.36586 12.4332 8.46392 13.9719 9.85776 15.3658C11.2516 16.7596 12.7904 17.8577 14.1904 18.4577C14.9565 18.786 15.6533 18.9498 16.2554 18.9498C16.9207 18.9498 17.4703 18.7498 17.8692 18.3509L19.1959 17.024V17.0242C19.4686 16.7515 19.6187 16.3892 19.6187 16.0037C19.6187 15.618 19.4686 15.2557 19.1959 14.9832L17.5375 13.3245ZM16.8231 17.3048C16.6062 17.5217 15.9393 17.5977 14.7733 17.0981C13.542 16.5704 12.1678 15.5836 10.9039 14.3197C9.63992 13.0557 8.65328 11.6817 8.12561 10.4505C7.62585 9.28446 7.70186 8.61727 7.91874 8.40039L9.22002 7.09912L10.8273 8.70657L10.0569 9.4771C9.70862 9.82541 9.62453 10.3537 9.84795 10.7917C10.8608 12.7776 12.4459 14.3628 14.4319 15.3756C14.8701 15.599 15.3983 15.5151 15.7466 15.1666L16.517 14.3962L18.1244 16.0037L16.8231 17.3048Z" fill="white"/>
</svg>
